<svg xmlns="http://www.w3.org/2000/svg" width="105.94" height="106" viewBox="0 0 105.94 106"><defs><style>.a{fill:#373737;}</style></defs><g transform="translate(26.485 28.226)"><path class="a" d="M156.63,160a17.657,17.657,0,1,0-20.29,0A19.673,19.673,0,0,0,120,179.35v24.485a1.765,1.765,0,0,0,1.765,1.766H171.2a1.765,1.765,0,0,0,1.766-1.765h0V179.35A19.673,19.673,0,0,0,156.63,160Zm-24.27-14.427a14.125,14.125,0,1,1,14.125,14.125A14.125,14.125,0,0,1,132.36,145.568Zm37.079,56.5H123.531V179.35a16.144,16.144,0,0,1,16.126-16.125h13.656a16.144,16.144,0,0,1,16.125,16.125Z" transform="translate(-120 -127.886)"/></g><g transform="translate(52 11)"><g transform="translate(0 0)"><rect class="a" width="3" height="7" transform="translate(0)"/></g></g><g transform="translate(68.647 14.943)"><g transform="translate(0 0)"><rect class="a" width="7.063" height="3.531" transform="translate(0 4.994) rotate(-45)"/></g></g><g transform="translate(91 102)"><g transform="translate(0 0)"><rect class="a" width="7" height="4"/></g></g><g transform="translate(91 85)"><g transform="translate(0 0)"><rect class="a" width="7" height="3"/></g></g><g transform="translate(91 67)"><g transform="translate(0 0)"><rect class="a" width="7" height="4"/></g></g><g transform="translate(87.911 48.409)"><g transform="translate(0 0)"><rect class="a" width="7.063" height="3.531" transform="translate(0 2.235) rotate(-18.446)"/></g></g><g transform="translate(82.425 30.098)"><g transform="translate(0 0)"><rect class="a" width="7.063" height="3.531" transform="translate(0 2.235) rotate(-18.446)"/></g></g><g transform="translate(29.803 14.947)"><g transform="translate(0 0)"><rect class="a" width="3.531" height="7.063" transform="matrix(0.707, -0.707, 0.707, 0.707, 0, 2.497)"/></g></g><g transform="translate(9 102)"><g transform="translate(0 0)"><rect class="a" width="7" height="4" transform="translate(0)"/></g></g><g transform="translate(9 85)"><g transform="translate(0 0)"><rect class="a" width="7" height="3" transform="translate(0)"/></g></g><g transform="translate(9 67)"><g transform="translate(0 0)"><rect class="a" width="7" height="4" transform="translate(0)"/></g></g><g transform="translate(10.217 48.41)"><g transform="translate(0 0)"><rect class="a" width="3.531" height="7.063" transform="matrix(0.316, -0.949, 0.949, 0.316, 0, 3.35)"/></g></g><g transform="translate(15.694 30.111)"><g transform="translate(0 0)"><rect class="a" width="3.531" height="7.063" transform="translate(0 3.35) rotate(-71.561)"/></g></g><g transform="translate(88.283)"><path class="a" d="M415.891,7.063a5.3,5.3,0,0,1-5.3-5.3,1.766,1.766,0,0,0-3.531,0,5.3,5.3,0,0,1-5.3,5.3,1.766,1.766,0,1,0,0,3.531,5.3,5.3,0,0,1,5.3,5.3,1.766,1.766,0,0,0,3.531,0,5.3,5.3,0,0,1,5.3-5.3,1.766,1.766,0,1,0,0-3.531ZM408.828,10.6a8.9,8.9,0,0,0-1.771-1.771,8.9,8.9,0,0,0,1.771-1.771A8.9,8.9,0,0,0,410.6,8.828,8.9,8.9,0,0,0,408.828,10.6Z" transform="translate(-400)"/></g><path class="a" d="M15.891,7.063a5.3,5.3,0,0,1-5.3-5.3,1.766,1.766,0,1,0-3.531,0,5.3,5.3,0,0,1-5.3,5.3,1.766,1.766,0,1,0,0,3.531,5.3,5.3,0,0,1,5.3,5.3,1.766,1.766,0,0,0,3.531,0,5.3,5.3,0,0,1,5.3-5.3,1.766,1.766,0,0,0,0-3.531ZM8.828,10.6A8.9,8.9,0,0,0,7.058,8.828,8.9,8.9,0,0,0,8.828,7.058,8.9,8.9,0,0,0,10.6,8.828,8.9,8.9,0,0,0,8.828,10.6Z"/></svg>