<?xml version="1.0" encoding="UTF-8"?>
<!DOCTYPE svg PUBLIC "-//W3C//DTD SVG 1.1//EN" "http://www.w3.org/Graphics/SVG/1.1/DTD/svg11.dtd">
<!-- Creator: CorelDRAW Home & Student X7 -->
<svg xmlns="http://www.w3.org/2000/svg" xml:space="preserve" width="31.0187mm" height="28.8601mm" version="1.1" style="shape-rendering:geometricPrecision; text-rendering:geometricPrecision; image-rendering:optimizeQuality; fill-rule:evenodd; clip-rule:evenodd"
viewBox="0 0 524 488"
 xmlns:xlink="http://www.w3.org/1999/xlink">
 <defs>
  <style type="text/css">
   <![CDATA[
    .fil0 {fill:black}
   ]]>
  </style>
 </defs>
 <g id="Warstwa_x0020_1">
  <metadata id="CorelCorpID_0Corel-Layer"/>
  <path class="fil0" d="M282 234l-40 0c-8,0 -15,-7 -15,-15l0 -10c0,-5 4,-8 9,-8 4,0 8,3 8,8l0 8 36 0 0 -26 -38 0c-8,0 -15,-7 -15,-15l0 -30c0,-8 7,-15 15,-15l40 0c9,0 15,7 15,15l0 10c0,5 -4,8 -8,8 -5,0 -9,-3 -9,-8l0 -8 -36 0 0 26 38 0c9,0 15,7 15,15l0 30c0,8 -6,15 -15,15z"/>
  <path class="fil0" d="M262 109c-40,0 -73,33 -73,73 0,41 33,74 73,74 41,0 73,-33 73,-74 0,-40 -32,-73 -73,-73zm0 164c-50,0 -90,-41 -90,-91 0,-49 40,-90 90,-90 50,0 90,41 90,90 0,50 -40,91 -90,91z"/>
  <path class="fil0" d="M262 61c-5,0 -8,-4 -8,-8l0 -45c0,-4 3,-8 8,-8 5,0 9,4 9,8l0 45c0,4 -4,8 -9,8z"/>
  <path class="fil0" d="M320 77c-1,0 -3,-1 -4,-1 -4,-3 -5,-8 -3,-12l22 -38c2,-4 8,-6 12,-3 4,2 5,7 3,11l-22 39c-2,2 -5,4 -8,4z"/>
  <path class="fil0" d="M204 77c-3,0 -6,-2 -7,-4l-22 -39c-3,-4 -1,-9 3,-11 4,-3 9,-1 11,3l22 38c3,4 1,9 -3,12 -1,0 -2,1 -4,1z"/>
  <path class="fil0" d="M337 396l131 0 38 -166c4,-16 0,-33 -11,-45l-84 -103c-7,-8 -19,-10 -27,-3 -9,6 -11,17 -6,26l38 64c2,-1 3,-1 4,-2 9,-2 18,-1 27,3 13,8 20,24 15,39l-26 90c-2,4 -6,7 -11,5 -4,-1 -7,-6 -6,-10l27 -89c2,-8 -1,-16 -8,-20 -4,-2 -9,-3 -13,-1 -2,0 -4,1 -6,3 0,0 0,0 0,0 -2,2 -3,3 -4,5l-73 142c-6,13 -9,28 -7,42l2 20zm138 17l-146 0c-4,0 -8,-3 -8,-7l-3 -28c-2,-18 1,-36 9,-52l73 -142c1,-1 2,-3 3,-5l-40 -66c-9,-16 -5,-37 11,-48 16,-12 38,-9 50,7l85 102c13,16 18,39 14,59l-40 174c-1,4 -4,6 -8,6z"/>
  <path class="fil0" d="M56 396l131 0 3 -20c1,-14 -1,-29 -8,-42l-72 -142c-1,-2 -3,-3 -4,-5 0,0 -1,0 -1,0 -2,-2 -3,-3 -6,-3 -4,-2 -9,-1 -13,1 -7,4 -10,12 -8,20l27 89c1,4 -1,9 -6,10 -4,2 -9,-1 -10,-5l-27 -90c-4,-15 2,-31 16,-39 8,-4 17,-5 26,-3 2,1 3,1 4,2l38 -64c5,-9 3,-20 -5,-26 -9,-7 -21,-5 -28,3l-84 103c-10,12 -14,29 -11,45l38 166zm139 17l-146 0c-4,0 -7,-2 -8,-6l-39 -174c-5,-20 0,-43 14,-59l84 -102c12,-16 34,-19 50,-7 16,11 21,32 11,48l-40 66c2,2 3,4 4,5l72 142c8,16 11,34 9,52l-3 28c0,4 -4,7 -8,7z"/>
  <path class="fil0" d="M338 413c-16,0 -29,13 -29,29 0,16 13,29 29,29l120 0c16,0 28,-13 28,-29 0,-16 -12,-29 -28,-29l-120 0zm120 75l-120 0c-25,0 -46,-21 -46,-46 0,-25 21,-46 46,-46l120 0c25,0 45,21 45,46 0,25 -20,46 -45,46z"/>
  <path class="fil0" d="M67 413c-16,0 -29,13 -29,29 0,16 13,29 29,29l120 0c15,0 28,-13 28,-29 0,-16 -13,-29 -28,-29l-120 0zm120 75l-120 0c-26,0 -46,-21 -46,-46 0,-25 20,-46 46,-46l120 0c25,0 45,21 45,46 0,25 -20,46 -45,46z"/>
 </g>
</svg>
