<?xml version="1.0" encoding="UTF-8"?>
<!DOCTYPE svg PUBLIC "-//W3C//DTD SVG 1.1//EN" "http://www.w3.org/Graphics/SVG/1.1/DTD/svg11.dtd">
<!-- Creator: CorelDRAW Home & Student X7 -->
<svg xmlns="http://www.w3.org/2000/svg" xml:space="preserve" width="21.3078mm" height="28.3845mm" version="1.1" style="shape-rendering:geometricPrecision; text-rendering:geometricPrecision; image-rendering:optimizeQuality; fill-rule:evenodd; clip-rule:evenodd"
viewBox="0 0 326 435"
 xmlns:xlink="http://www.w3.org/1999/xlink">
 <defs>
  <style type="text/css">
   <![CDATA[
    .fil0 {fill:black}
   ]]>
  </style>
 </defs>
 <g id="Warstwa_x0020_1">
  <metadata id="CorelCorpID_0Corel-Layer"/>
  <g id="_573471672">
   <path class="fil0" d="M158 334c-1,1 -2,2 -2,2 -1,1 -2,1 -2,2 -2,1 -3,2 -5,3l-32 66 -6 -38 9 -15c-1,0 -2,1 -3,1 -3,0 -6,1 -9,1 -2,0 -4,0 -6,0 -6,0 -13,-1 -19,-2l10 15 -6 39 -36 -70c-1,-1 -3,-3 -4,-4l-1 1c-34,29 -44,75 -46,100l201 0c-6,-71 -36,-95 -43,-101z"/>
   <path class="fil0" d="M102 198c-42,0 -76,34 -76,76 0,42 34,76 76,76 43,0 77,-34 77,-76 0,-42 -34,-76 -77,-76z"/>
   <path class="fil0" d="M286 375c-1,1 -19,13 -19,13l9 12 -28 22 0 0 0 0 -1 0 0 0 -28 -22 9 -12c0,0 -18,-12 -19,-13 -1,-2 8,-11 8,-11l31 58 30 -58c0,0 9,9 8,11zm35 9c1,0 1,0 1,-1 0,-1 -1,-1 -1,-1 0,0 -13,-7 -16,-16 4,5 9,6 16,8 1,0 1,0 2,-1 0,0 0,-1 0,-1 -7,-17 -10,-36 -13,-54 -2,-12 -4,-23 -7,-33 0,-4 -2,-8 -3,-12 -2,-5 -4,-9 -7,-13 -3,-4 -11,-15 -28,-18 -6,-2 -12,-3 -18,-3 -13,0 -24,4 -33,11 -9,5 -15,13 -20,25 -3,7 -5,14 -7,22 0,2 0,4 0,6 -1,2 -1,5 -2,8 -1,12 0,28 2,44 11,16 21,41 24,80l115 0c-1,-11 -3,-29 -11,-47 3,-2 6,-3 6,-4z"/>
   <path class="fil0" d="M220 49l-183 0c-2,0 -3,-2 -3,-4 0,-2 1,-4 3,-4l183 0c1,0 3,2 3,4 0,2 -2,4 -3,4zm0 24l-183 0c-2,0 -3,-2 -3,-4 0,-2 1,-3 3,-3l183 0c1,0 3,1 3,3 0,2 -2,4 -3,4zm-81 24l-102 0c-2,0 -3,-1 -3,-3 0,-2 1,-4 3,-4l102 0c2,0 3,2 3,4 0,2 -1,3 -3,3zm93 -97l-204 0c-12,0 -21,9 -21,20l0 110c0,11 9,20 21,20l82 0 -3 35 30 -35 95 0c11,0 20,-9 20,-20l0 -110c0,-11 -9,-20 -20,-20z"/>
   <path class="fil0" d="M307 97l-46 0 0 40c0,12 -10,22 -22,22l-61 0 0 26c0,7 6,13 12,13l63 0 18 21 -1 -21 37 0c7,0 13,-6 13,-13l0 -75c0,-7 -6,-13 -13,-13z"/>
  </g>
 </g>
</svg>
