<svg xmlns="http://www.w3.org/2000/svg" width="402.185" height="402.178" viewBox="0 0 402.185 402.178"><defs><style>.a{opacity:0.5;}.b{fill:#efefef;}</style></defs><g class="a"><g transform="translate(234.4 203.965)"><path class="b" d="M361.271,350.389a56.518,56.518,0,1,1,56.519-56.518A56.582,56.582,0,0,1,361.271,350.389Zm0-87.255a30.738,30.738,0,1,0,30.738,30.738A30.773,30.773,0,0,0,361.271,263.133Z" transform="translate(-277.262 -237.352)"/><path class="b" d="M410.55,451.167H302.993a30.149,30.149,0,0,1-30.23-30v-28.2a83.676,83.676,0,0,1,10.318-40.24l22.586,12.431a57.814,57.814,0,0,0-7.124,27.81v28.2a4.452,4.452,0,0,0,4.449,4.219H410.549a4.223,4.223,0,0,0,4.219-4.219v-28.2a57.686,57.686,0,0,0-8.933-30.9l21.785-13.787a83.418,83.418,0,0,1,12.929,44.685v28.2A30.032,30.032,0,0,1,410.55,451.167Z" transform="translate(-272.763 -252.954)"/></g><g transform="translate(0 203.965)"><path class="b" d="M88.507,350.389a56.518,56.518,0,1,1,56.519-56.518A56.582,56.582,0,0,1,88.507,350.389Zm0-87.255a30.738,30.738,0,1,0,30.738,30.738A30.773,30.773,0,0,0,88.507,263.133Z" transform="translate(-4.499 -237.352)"/><path class="b" d="M137.786,451.167H30.229A30.149,30.149,0,0,1,0,421.168v-28.2a83.676,83.676,0,0,1,10.318-40.24L32.9,365.16a57.814,57.814,0,0,0-7.124,27.81v28.2a4.452,4.452,0,0,0,4.449,4.219H137.786A4.223,4.223,0,0,0,142,421.168v-28.2a57.685,57.685,0,0,0-8.933-30.9l21.785-13.787a83.418,83.418,0,0,1,12.929,44.685v28.2A30.033,30.033,0,0,1,137.786,451.167Z" transform="translate(0 -252.954)"/></g><g transform="translate(68.441 0)"><path class="b" d="M338.284,151.5l-38.429-29.045a4.258,4.258,0,0,0-2.433-.855H208.707a29.493,29.493,0,0,1-29.521-29.4V29.559A29.571,29.571,0,0,1,208.707.005H329.124a29.723,29.723,0,0,1,29.823,29.554V141.213C358.947,156.121,343.5,157.267,338.284,151.5ZM208.707,25.786a3.717,3.717,0,0,0-3.74,3.773V92.2a3.6,3.6,0,0,0,3.74,3.616h88.716a30.009,30.009,0,0,1,17.978,6.07l17.765,13.427V29.559a4.018,4.018,0,0,0-4.042-3.773Z" transform="translate(-93.642 -0.005)"/><path class="b" d="M79.642,188.742V77.528A29.781,29.781,0,0,1,109.4,47.788h34.3V73.569H109.4a4.124,4.124,0,0,0-3.976,3.959v85.347l17.625-13.292a29.906,29.906,0,0,1,17.927-5.985h88.366v25.781H140.975a4.149,4.149,0,0,0-2.392.779l-38.289,28.877c-2.28,1.72-18.908,5.918-20.652-10.291Z" transform="translate(-79.642 -6.726)"/><path class="b" d="M239.978,56.746h75.279V82.527H239.978Z" transform="translate(-102.193 -7.985)"/></g></g></svg>