<svg xmlns="http://www.w3.org/2000/svg" width="401.728" height="401.723" viewBox="0 0 401.728 401.723"><defs><style>.a{fill:#efefef;opacity:0.5;}</style></defs><path class="a" d="M381.642,174.078h-73.65v-74.4a18.359,18.359,0,0,0-8.945-15.848L163.477,2.574a18.747,18.747,0,0,0-19.015.033L8.919,83.837A18.372,18.372,0,0,0,0,99.678V255.153a18.352,18.352,0,0,0,8.945,15.855L144.5,352.251a18.747,18.747,0,0,0,19.035,0l50.718-30.438v59.824a20.086,20.086,0,1,0,40.173,0V321.378H381.642a20.086,20.086,0,0,0,20.086-20.086V194.164A20.086,20.086,0,0,0,381.642,174.078Zm6.7,20.086v13.391H368.251V187.469h13.391A6.7,6.7,0,0,1,388.337,194.164Zm-113.823-6.7v20.086H254.428V187.469Zm-20.086,33.477h20.086v20.086H254.428Zm33.477,0h26.782v20.086H287.905Zm40.173,0H354.86v20.086H328.078Zm0-13.391V187.469H354.86v20.086Zm-13.391,0H287.905V187.469h26.782Zm-60.259,46.868h20.086V274.51H254.428Zm33.477,0h26.782V274.51H287.905ZM314.687,287.9v20.086H287.905V287.9Zm13.391,0H354.86v20.086H328.078Zm0-13.391V254.424H354.86V274.51Zm40.173-20.086h20.086V274.51H368.251Zm0-13.391V220.946h20.086v20.086ZM151.318,14.117a5.356,5.356,0,0,1,5.356,0L291.715,95.072,157.082,175.759a6.1,6.1,0,0,1-6.12,0L16.277,95.072ZM15.842,259.532a5.068,5.068,0,0,1-2.451-4.379V108.924L144.12,187.308a19.97,19.97,0,0,0,3.18,1.339V338.324Zm144.85,78.786V188.634a19.417,19.417,0,0,0,3.227-1.339L294.6,108.918v65.16H253.2a20.04,20.04,0,0,0-38.941,6.7V306.2Zm80.346,43.32a6.7,6.7,0,1,1-13.391,0V180.773a6.7,6.7,0,0,1,13.391,0ZM254.428,287.9h20.086v20.086H254.428Zm127.214,20.086H368.251V287.9h20.086v13.391A6.7,6.7,0,0,1,381.642,307.987Z" transform="translate(0 -0.001)"/></svg>