<svg xmlns="http://www.w3.org/2000/svg" width="318.769" height="402.655" viewBox="0 0 318.769 402.655"><defs><style>.a{opacity:0.5;}.b{fill:#efefef;}</style></defs><g class="a"><path class="b" d="M290.214,0H38.555A33.555,33.555,0,0,0,5,33.555V369.1a33.555,33.555,0,0,0,33.555,33.555h251.66A33.555,33.555,0,0,0,323.769,369.1V33.555A33.555,33.555,0,0,0,290.214,0Zm16.777,369.1a16.777,16.777,0,0,1-16.777,16.777H38.555A16.777,16.777,0,0,1,21.777,369.1V33.555A16.777,16.777,0,0,1,38.555,16.777h251.66a16.777,16.777,0,0,1,16.777,16.777Z" transform="translate(-5)"/><path class="b" d="M252.271,5H17.389A8.389,8.389,0,0,0,9,13.389v92.275a8.389,8.389,0,0,0,8.389,8.389H252.271a8.389,8.389,0,0,0,8.389-8.389V13.389A8.389,8.389,0,0,0,252.271,5Zm-8.389,92.275H25.777v-75.5h218.1Z" transform="translate(24.555 36.943)"/><path class="b" d="M66.943,21H33.389A8.389,8.389,0,0,0,25,29.389V62.943a8.389,8.389,0,0,0,8.389,8.389H66.943a8.389,8.389,0,0,0,8.389-8.389V29.389A8.389,8.389,0,0,0,66.943,21ZM58.555,54.555H41.777V37.777H58.555Z" transform="translate(142.773 155.162)"/><path class="b" d="M74.943,21H41.389A8.389,8.389,0,0,0,33,29.389V62.943a8.389,8.389,0,0,0,8.389,8.389H74.943a8.389,8.389,0,0,0,8.389-8.389V29.389A8.389,8.389,0,0,0,74.943,21ZM66.555,54.555H49.777V37.777H66.555Z" transform="translate(201.882 155.162)"/><path class="b" d="M58.943,21H25.389A8.389,8.389,0,0,0,17,29.389V62.943a8.389,8.389,0,0,0,8.389,8.389H58.943a8.389,8.389,0,0,0,8.389-8.389V29.389A8.389,8.389,0,0,0,58.943,21ZM50.555,54.555H33.777V37.777H50.555Z" transform="translate(83.664 155.162)"/><path class="b" d="M50.943,21H17.389A8.389,8.389,0,0,0,9,29.389V62.943a8.389,8.389,0,0,0,8.389,8.389H50.943a8.389,8.389,0,0,0,8.389-8.389V29.389A8.389,8.389,0,0,0,50.943,21ZM42.555,54.555H25.777V37.777H42.555Z" transform="translate(24.555 155.162)"/><path class="b" d="M66.943,29H33.389A8.389,8.389,0,0,0,25,37.389V70.943a8.389,8.389,0,0,0,8.389,8.389H66.943a8.389,8.389,0,0,0,8.389-8.389V37.389A8.389,8.389,0,0,0,66.943,29ZM58.555,62.555H41.777V45.777H58.555Z" transform="translate(142.773 214.271)"/><path class="b" d="M58.943,29H25.389A8.389,8.389,0,0,0,17,37.389V70.943a8.389,8.389,0,0,0,8.389,8.389H58.943a8.389,8.389,0,0,0,8.389-8.389V37.389A8.389,8.389,0,0,0,58.943,29ZM50.555,62.555H33.777V45.777H50.555Z" transform="translate(83.664 214.271)"/><path class="b" d="M50.943,29H17.389A8.389,8.389,0,0,0,9,37.389V70.943a8.389,8.389,0,0,0,8.389,8.389H50.943a8.389,8.389,0,0,0,8.389-8.389V37.389A8.389,8.389,0,0,0,50.943,29ZM42.555,62.555H25.777V45.777H42.555Z" transform="translate(24.555 214.271)"/><path class="b" d="M66.943,37H33.389A8.389,8.389,0,0,0,25,45.389V78.943a8.389,8.389,0,0,0,8.389,8.389H66.943a8.389,8.389,0,0,0,8.389-8.389V45.389A8.389,8.389,0,0,0,66.943,37ZM58.555,70.555H41.777V53.777H58.555Z" transform="translate(142.773 273.38)"/><path class="b" d="M74.943,29H41.389A8.389,8.389,0,0,0,33,37.389V138.052a8.389,8.389,0,0,0,8.389,8.389H74.943a8.389,8.389,0,0,0,8.389-8.389V37.389A8.389,8.389,0,0,0,74.943,29ZM66.555,129.664H49.777V45.777H66.555Z" transform="translate(201.882 214.271)"/><path class="b" d="M58.943,37H25.389A8.389,8.389,0,0,0,17,45.389V78.943a8.389,8.389,0,0,0,8.389,8.389H58.943a8.389,8.389,0,0,0,8.389-8.389V45.389A8.389,8.389,0,0,0,58.943,37ZM50.555,70.555H33.777V53.777H50.555Z" transform="translate(83.664 273.38)"/><path class="b" d="M50.943,37H17.389A8.389,8.389,0,0,0,9,45.389V78.943a8.389,8.389,0,0,0,8.389,8.389H50.943a8.389,8.389,0,0,0,8.389-8.389V45.389A8.389,8.389,0,0,0,50.943,37ZM42.555,70.555H25.777V53.777H42.555Z" transform="translate(24.555 273.38)"/></g></svg>